<svg xmlns="http://www.w3.org/2000/svg" width="430" height="430" style="width:100%;height:100%;transform:translate3d(0,0,0);content-visibility:visible" viewBox="0 0 430 430"><defs><clipPath id="g"><path d="M0 0h430v430H0z"/></clipPath><clipPath id="i"><path d="M0 0h430v430H0z"/></clipPath><clipPath id="h"><path d="M0 0h430v430H0z"/></clipPath><filter id="a" width="100%" height="100%" x="0%" y="0%" filterUnits="objectBoundingBox"><feComponentTransfer in="SourceGraphic"><feFuncA tableValues="1.0 0.0" type="table"/></feComponentTransfer></filter><filter id="c" width="100%" height="100%" x="0%" y="0%" filterUnits="objectBoundingBox"><feComponentTransfer in="SourceGraphic"><feFuncA tableValues="1.0 0.0" type="table"/></feComponentTransfer></filter><filter id="e" width="100%" height="100%" x="0%" y="0%" filterUnits="objectBoundingBox"><feComponentTransfer in="SourceGraphic"><feFuncA tableValues="1.0 0.0" type="table"/></feComponentTransfer></filter><path id="b" style="display:none"/><path id="d" style="display:none"/><path id="f" style="display:none"/><mask id="l" mask-type="alpha"><g filter="url(#a)"><path fill="#fff" d="M0 0h430v430H0z" opacity="0"/><use xmlns:ns1="http://www.w3.org/1999/xlink" ns1:href="#b"/></g></mask><mask id="k" mask-type="alpha"><g filter="url(#c)"><path fill="#fff" d="M0 0h430v430H0z" opacity="0"/><use xmlns:ns2="http://www.w3.org/1999/xlink" ns2:href="#d"/></g></mask><mask id="j" mask-type="alpha"><g filter="url(#e)"><path fill="#fff" d="M0 0h430v430H0z" opacity="0"/><use xmlns:ns3="http://www.w3.org/1999/xlink" ns3:href="#f"/></g></mask></defs><g clip-path="url(#g)"><g clip-path="url(#h)" style="display:block"><g style="display:block"><path fill="#B26836" d="M359.566 276.12c0 39.94-32.37 72.31-72.3 72.31-14.23 0-27.48-4.1-38.67-11.21-1.22 5.6-6.2 9.8-12.16 9.8h-9.03c-6.88 0-12.45-5.58-12.45-12.45 0 6.87-5.57 12.45-12.45 12.45h-9.04c-5.96 0-10.94-4.2-12.16-9.8-11.17 7.11-24.44 11.21-38.67 11.21-39.93 0-72.3-32.37-72.3-72.31 0-13.02 9.32-31.92 16.61-49.33 9.63-22.97 30.16-81.31 30.16-81.31-2.37-.43-4.67-1.24-6.82-2.48-12.65-7.31-15.34-26.34-6-42.51 9.34-16.19 27.16-23.37 39.81-16.06 6.28 3.62 10.11 10.14 11.23 17.75 16.96-11.09 37.24-17.54 59.02-17.54 22.26 0 42.95 6.73 60.14 18.27.98-7.93 4.84-14.75 11.32-18.48 12.66-7.31 30.47-.13 39.81 16.06 9.34 16.17 6.65 35.2-5.99 42.51a21.208 21.208 0 0 1-7.94 2.66c-.02 0 22.29 61.81 30.71 80.96 7.62 17.35 17.17 36.27 17.17 49.5z" class="tertiary"/><path fill="#B26836" d="M43.295 132.019c-4.62.92-9.4 1.411-14.29 1.411-39.93 0-72.3-32.37-72.3-72.31 0-13.02 9.32-31.921 16.61-49.331 9.63-22.97 30.16-81.31 30.16-81.31-.01 0-.03 0-.04-.01A21.14 21.14 0 0 1-3.345-72c-12.65-7.31-15.34-26.34-6-42.51 6.26-10.85 16.33-17.651 26.1-18.761 2.4-.27 4.79-.2 7.09.24-1.285.121-15.657 1.715-22.215 14.018-4.422 8.297-2.632 16.475-1.988 19.414C1.556-90.862 6.993-84.46 10.805-82.63c2.636 1.266 5.18 1.32 5.18 1.32 1.65.04 3.03-.28 4.01-.62 1.01-.34 1.59-.7 1.59-.7 0 .3 0 .799-.01 1.409-.34 35.96-18.47 56.951-34.43 91.601-11.094 24.087-16.642 36.129-16.61 49.329.016 6.724 1.033 37.74 26.661 57.762 18.678 14.592 39.45 14.766 46.099 14.548z" class="tertiary" opacity=".5" style="mix-blend-mode:multiply" transform="translate(113.633 215)"/><path fill="#B26836" d="M-18.353 18.78s1.1 12.46 18.32 13.11c2.37-.43 4.67-1.24 6.82-2.48 12.65-7.31 15.34-26.34 6-42.51-6.32-10.95-16.5-17.77-26.35-18.79C-.603-22.72 6.877-8.66 4.357 2.27c-1.63 7.04-7.43 14.35-11.93 16.51-1.2.58-2.92 1.27-5.18 1.32-3.34.08-5.6-1.32-5.6-1.32z" class="tertiary" opacity=".5" style="mix-blend-mode:multiply" transform="translate(312.993 113.614)"/><path fill="#EBE6EF" d="M248.81 293.919v40.88c0 .91-.1 1.79-.28 2.65-1.22 5.6-6.2 9.8-12.16 9.8h-9.03c-6.89 0-12.46-5.58-12.46-12.45v-46.57l20.65 4.55c4.41.99 8.9 1.36 13.28 1.14z" class="secondary"/><path fill="#EBE6EF" d="M181.093 293.919v40.88c0 .91.1 1.79.28 2.65 1.22 5.6 6.2 9.8 12.16 9.8h9.03c6.89 0 12.46-5.58 12.46-12.45v-46.57l-20.65 4.55c-4.41.99-8.9 1.36-13.28 1.14z" class="secondary"/><path fill="#EBE6EF" d="M7.655 29.51h-2.85c-6.89 0-12.46-5.58-12.46-12.45v-46.57l7.19 1.58v45.51c0 5.42 3.36 10.06 8.12 11.93z" class="secondary" opacity=".5" style="mix-blend-mode:multiply" transform="translate(222.528 317.739)"/><path fill="#EBE6EF" d="M7.12 26.705h-1.8c-5.96 0-10.94-4.2-12.16-9.8-.18-.86-.28-1.74-.28-2.65v-40.88c2.03.1 4.08.08 6.14-.08v41.48c0 .94.11 1.84.29 2.73.92 4.2 3.89 7.64 7.81 9.2z" class="secondary" opacity=".5" style="mix-blend-mode:multiply" transform="translate(188.213 320.544)"/></g><g fill="#3A3347" style="display:block"><path d="M214.946 253.541c-10.64 0-37.7-20.58-33.23-32.32 6.97-18.34 59.5-18.34 66.47 0 4.47 11.74-22.59 32.32-33.24 32.32z" class="quaternary"/><path d="M20.362 21.237c-2.67 1.14-5.1 1.8-7 1.8-10.64 0-37.7-20.58-33.23-32.32 4.03-10.62 23.33-15.09 40.23-13.41-12.29 1.21-23.3 5.69-26.24 13.41-3.67 9.65 13.94 25.26 26.24 30.52z" class="quaternary" opacity=".5" style="mix-blend-mode:multiply" transform="translate(201.584 230.504)"/></g><g fill="none" stroke="#121331" stroke-linecap="round" stroke-linejoin="round" style="display:block"><path stroke-width="7" d="M248.633 337.221c11.187 7.113 24.452 11.211 38.679 11.211 39.932 0 72.301-32.368 72.301-72.312 0-13.23-9.544-32.149-17.169-49.502-8.416-19.154-30.727-80.957-30.715-80.957h-.012m-194.564-.183s-20.534 58.339-30.156 81.311c-7.294 17.415-16.61 36.308-16.61 49.331 0 39.944 32.369 72.312 72.301 72.312 14.227 0 27.492-4.098 38.667-11.211M155.37 102.178c16.962-11.089 37.244-17.534 59.022-17.534 22.264 0 42.947 6.725 60.141 18.264m-119.163-.73c-1.119-7.612-4.949-14.129-11.223-17.753-12.658-7.308-30.473-.121-39.811 16.063-9.338 16.172-6.651 35.202 5.995 42.51a21.069 21.069 0 0 0 6.822 2.48m194.564.183a21.24 21.24 0 0 0 7.952-2.663c12.646-7.308 15.334-26.338 5.995-42.51-9.338-16.184-27.153-23.371-39.811-16.063-6.481 3.733-10.335 10.555-11.32 18.483m11.6 133.396s7.471 20.916-5.597 41.379c-8.04 12.59-27.105 18.881-44.888 14.863L215 288.001l-20.862 4.733c-17.286 3.797-35.952-2.031-44.068-14.124-13.903-20.715-6.203-42.306-6.203-42.306M215 288v46.57c0 6.87-5.569 12.452-12.451 12.452h-9.035c-6.87 0-12.439-5.582-12.439-12.452v-40.734m67.85-.146v40.88c0 6.87-5.569 12.452-12.439 12.452h-9.035c-6.882 0-12.451-5.582-12.451-12.452V288m0 .001v-34.46m-62.82-82.173" class="primary"/><path stroke-width="7" d="M248.238 221.22c4.466 11.742-22.598 32.322-33.238 32.322s-37.704-20.58-33.238-32.322c6.975-18.34 59.501-18.34 66.476 0z" class="primary"/><path stroke-width="15.96" d="M152.179 171.368s0 0 0 0m125.641 0s0 0 0 0" class="primary"/></g></g><g clip-path="url(#i)" style="display:none"><g style="display:none"><path class="tertiary"/><path class="tertiary" style="mix-blend-mode:multiply"/></g><path class="tertiary" style="mix-blend-mode:multiply;display:none"/><path class="secondary" style="display:none"/><g mask="url(#j)" style="mix-blend-mode:multiply;display:none"><path class="secondary"/></g><path class="secondary" style="display:none"/><g mask="url(#k)" style="mix-blend-mode:multiply;display:none"><path class="secondary"/></g><path fill="none" class="primary" style="display:none"/><path class="quaternary" style="display:none"/><g mask="url(#l)" style="mix-blend-mode:multiply;display:none"><path class="quaternary"/></g><path fill="none" class="primary" style="display:none"/><path fill="none" class="primary" style="display:none"/><path fill="none" class="primary" style="display:none"/><path fill="none" class="primary" style="display:none"/><path fill="none" class="primary" style="display:none"/></g></g></svg>